<?xml version="1.0" standalone="no"?>
<!DOCTYPE svg PUBLIC "-//W3C//DTD SVG 20010904//EN"
 "http://www.w3.org/TR/2001/REC-SVG-20010904/DTD/svg10.dtd">
<svg version="1.0" xmlns="http://www.w3.org/2000/svg"
 width="512.000000pt" height="512.000000pt" viewBox="0 0 512.000000 512.000000"
 preserveAspectRatio="xMidYMid meet">
<metadata>
Created by potrace 1.14, written by Peter Selinger 2001-2017
</metadata>
<g transform="translate(0.000000,512.000000) scale(0.100000,-0.100000)"
fill="#000000" stroke="none">
<path d="M700 5108 c-19 -5 -53 -14 -75 -21 -22 -6 -44 -13 -50 -17 -5 -3 -28
-12 -50 -19 -53 -18 -206 -121 -258 -174 -49 -49 -127 -142 -127 -151 0 -4
-11 -23 -24 -44 -14 -20 -38 -72 -55 -114 -65 -165 -61 -30 -61 -2011 1 -1908
-1 -1815 45 -1967 9 -30 21 -59 26 -65 5 -5 9 -15 9 -22 0 -26 124 -199 183
-256 125 -119 252 -187 443 -236 29 -8 604 -11 1855 -11 1912 1 1842 -1 1970
44 70 24 97 37 174 83 124 73 209 161 311 323 20 31 62 141 93 241 16 50 16
3688 0 3738 -31 100 -73 210 -93 241 -102 162 -187 250 -311 323 -77 46 -104
59 -174 83 -128 45 -57 43 -1976 43 -1142 -1 -1833 -5 -1855 -11z"/>
</g>
</svg>
